<!--?xml version="1.0" encoding="utf-8"?-->
<!-- Generator: Adobe Illustrator 18.1.1, SVG Export Plug-In . SVG Version: 6.00 Build 0)  -->

<svg version="1.1" id="_x32_" xmlns="http://www.w3.org/2000/svg" xmlns:xlink="http://www.w3.org/1999/xlink" x="0px" y="0px" viewBox="0 0 512 512" style="width: 32px; height: 32px; opacity: 1;" xml:space="preserve">
<style type="text/css">
	.st0{fill:#4B4B4B;}
</style>
<g>
	<path class="st0" d="M273.628,162.394l66.552,6.841c3.909,0.398,7.465-2.295,8.134-6.164l2.797-16.24
		c0.374-2.173-0.228-4.404-1.65-6.085c-1.418-1.689-3.513-2.666-5.715-2.666H274.39c-4.129,0-7.475,3.349-7.475,7.475v9.399
		C266.915,158.795,269.812,162.002,273.628,162.394z" style="fill: rgb(0, 0, 0);"></path>
	<path class="st0" d="M413.492,217.997c-46.618,0.008-85.557,32.409-95.794,75.891h30.317c3.46-10.027,9.096-19.027,16.457-26.402
		c12.592-12.563,29.829-20.294,49.02-20.301c19.19,0.007,36.428,7.738,49.019,20.301c12.566,12.592,20.294,29.829,20.302,49.02
		c-0.007,19.183-7.736,36.42-20.302,49.019c-12.592,12.562-29.829,20.294-49.019,20.302c-19.19-0.007-36.428-7.739-49.02-20.302
		c-7.361-7.383-12.994-16.383-16.457-26.402h-30.317c10.236,43.482,49.176,75.884,95.794,75.891
		c54.413-0.007,98.498-44.103,98.508-98.508C511.989,262.099,467.905,218.005,413.492,217.997z" style="fill: rgb(0, 0, 0);"></path>
	<path class="st0" d="M413.492,327.451v-21.891H309.378c0.752,3.535,1.162,7.19,1.162,10.946c0,3.755-0.409,7.411-1.162,10.945
		H413.492z" style="fill: rgb(0, 0, 0);"></path>
	<path class="st0" d="M156.956,279.331c6.858,10.745,10.87,23.444,10.874,37.176c-0.007,19.183-7.735,36.42-20.301,49.019
		c-12.592,12.562-29.829,20.294-49.02,20.302c-19.19-0.007-36.428-7.739-49.019-20.302c-12.566-12.599-20.294-29.836-20.302-49.019
		c0.008-19.19,7.736-36.428,20.302-49.02c12.592-12.563,29.829-20.294,49.019-20.301c7.984,0.007,15.595,1.41,22.71,3.876
		c4.971-8.472,9.566-17.138,13.874-25.967c-11.32-4.532-23.644-7.097-36.585-7.097C44.095,218.005,0.011,262.099,0,316.506
		c0.011,54.406,44.095,98.501,98.508,98.508c54.413-0.007,98.498-44.103,98.509-98.508c-0.004-24.912-9.324-47.594-24.57-64.938
		C167.637,261.009,162.46,270.259,156.956,279.331z" style="fill: rgb(0, 0, 0);"></path>
	<path class="st0" d="M177.859,124.57c1.76,2.408,2.668,5.273,2.668,8.181c0,1.418-0.218,2.843-0.663,4.239l-12.809,39.976
		c-14.049,43.846-35.586,84.934-63.663,121.426L86.18,320.767l17.352,13.354l17.213-22.382
		c26.412-34.333,47.298-72.535,62.03-113.202h105.71l-23.584,65.786c7.478,1.012,14.452,3.591,20.601,7.404l34.083-95.081H190.148
		l10.568-32.978c1.14-3.578,1.703-7.255,1.703-10.917c0-7.482-2.355-14.887-6.873-21.079c-6.737-9.235-17.476-14.686-28.895-14.686
		h-34.09v21.891h34.09C171.086,118.876,175.248,120.992,177.859,124.57z" style="fill: rgb(0, 0, 0);"></path>
	<path class="st0" d="M249.706,335.439c-7.34-3.157-12.481-10.44-12.499-18.933c0.021-11.38,9.231-20.594,20.615-20.615
		c11.384,0.021,20.594,9.235,20.615,20.615c-0.004,2.857-0.592,5.579-1.646,8.045l7.853,21.007
		c7.828-7.226,12.759-17.544,12.762-29.052c-0.004-21.87-17.718-39.584-39.584-39.584s-39.581,17.715-39.584,39.584
		c0.004,21.734,17.501,39.335,39.178,39.563L249.706,335.439z" style="fill: rgb(0, 0, 0);"></path>
	<path class="st0" d="M265.265,314.553l-0.335,0.121c-0.837-3.192-3.634-5.63-7.108-5.651c-4.118,0.021-7.471,3.385-7.482,7.504
		c0.004,1.824,0.752,3.442,1.86,4.746l22.084,54.82h-16.949v19.496h49.137v-19.496H289.86L265.265,314.553z" style="fill: rgb(0, 0, 0);"></path>
</g>
</svg>
