<!--?xml version="1.0" encoding="utf-8"?-->
<!-- Generator: Adobe Illustrator 18.1.1, SVG Export Plug-In . SVG Version: 6.00 Build 0)  -->

<svg version="1.1" id="_x32_" xmlns="http://www.w3.org/2000/svg" xmlns:xlink="http://www.w3.org/1999/xlink" x="0px" y="0px" viewBox="0 0 512 512" style="width: 32px; height: 32px; opacity: 1;" xml:space="preserve">
<style type="text/css">
	.st0{fill:#4B4B4B;}
</style>
<g>
	<path class="st0" d="M424.417,255.707c-21.852-16.958-28.848-46.999-20.744-76.65c-24.474,13.923-52.321,15.483-73.623,2.646
		l34.721-44.752c4.22,0.122,8.441-1.667,11.224-5.253l32.212-41.502c9.436-12.157,13.106-27.12,11.301-41.281
		c-1.774-14.145-9.023-27.732-21.187-37.166C386.165,2.305,371.194-1.35,357.057,0.44c-14.16,1.774-27.747,9.03-37.19,21.195
		c-6.782,8.746-10.612,18.977-11.507,29.292c-0.673,7.546,4.886,14.191,12.424,14.864c7.539,0.666,14.199-4.894,14.864-12.44
		c0.466-5.268,2.37-10.39,5.872-14.91c4.862-6.254,11.675-9.87,18.961-10.811c7.279-0.895,14.772,0.918,21.042,5.765
		c6.239,4.863,9.863,11.675,10.796,18.954c0.903,7.287-0.91,14.788-5.765,21.05l-32.213,41.494
		c-3.402,4.396-3.7,10.185-1.262,14.795L319.225,173.3c-17.724-17.449-23.129-44.806-15.705-71.972
		c-26.715,15.208-57.558,15.88-79.41-1.078c-7.455-5.788-13.174-13.112-17.157-21.424L83.569,475.445L62.58,502.489L74.86,512
		l20.973-27.028L449.42,267.016C440.39,265.212,431.873,261.496,424.417,255.707z" style="fill: rgb(58, 171, 210);"></path>
</g>
</svg>
