<?xml version="1.0" encoding="iso-8859-1"?>
<!-- Generator: Adobe Illustrator 19.0.0, SVG Export Plug-In . SVG Version: 6.00 Build 0)  -->
<svg version="1.1" id="Capa_1" xmlns="http://www.w3.org/2000/svg" xmlns:xlink="http://www.w3.org/1999/xlink" x="0px" y="0px"
	 viewBox="0 0 512 512" style="enable-background:new 0 0 512 512;" xml:space="preserve">
<g>
	<g>
		<path d="M256,0C116.513,0,0,116.14,0,256c0,139.487,116.14,256,256,256c139.487,0,256-116.14,256-256C512,116.513,395.86,0,256,0z
			 M96.9,415.099C11.255,329.454,7.845,197.225,86.638,107.852l89.844,89.844l-12.428,18.769C155.382,212.952,145.917,211,136,211
			c-41.355,0-75,33.645-75,75s33.645,75,75,75c36.22,0,66.522-25.808,73.491-60h70.296l124.362,124.361
			C314.775,504.154,182.546,500.744,96.9,415.099z M127.719,298.508c6.916,4.579,16.221,2.673,20.788-4.225l23.411-35.355
			C177.615,266.466,181,275.844,181,286c0,24.813-20.187,45-45,45s-45-20.187-45-45s20.187-45,45-45
			c3.764,0,7.419,0.471,10.916,1.346l-23.423,35.373C118.92,284.626,120.811,293.933,127.719,298.508z M390.231,281.256
			l-13.412-40.236C401.254,241.46,421,261.461,421,286c0,24.813-20.187,45-45,45s-45-20.187-45-45
			c0-14.4,6.807-27.233,17.364-35.475l13.406,40.218c2.623,7.869,11.124,12.104,18.974,9.487
			C388.603,297.61,392.85,289.115,390.231,281.256z M301.258,280.045l-4.65-4.65c-0.001-0.001-0.002-0.002-0.003-0.003L232.213,211
			h102.976l3.355,10.065C317.748,233.107,303.25,254.837,301.258,280.045z M249.787,271h-40.296
			c-2.985-14.648-10.252-27.756-20.434-37.957l9.072-13.701L249.787,271z M425.362,404.148l-43.406-43.406
			C420.534,357.694,451,325.349,451,286c0-41.355-33.645-75-75-75c-3.048,0-6.048,0.204-9.002,0.559l-6.67-20.011
			c-0.003-0.01-0.007-0.02-0.01-0.03l-21.688-65.063l14.078-7.039c7.41-3.705,10.413-12.715,6.708-20.125
			c-3.704-7.41-12.713-10.414-20.124-6.708l-60,30c-7.41,3.705-10.413,12.715-6.708,20.125c3.705,7.412,12.716,10.413,20.124,6.708
			l18.817-9.408L325.189,181H210v-30h16c8.284,0,15-6.716,15-15s-6.716-15-15-15h-30c-0.169,0-0.333,0.02-0.5,0.025
			c-0.167-0.006-0.331-0.025-0.5-0.025c-8.284,0-15,6.716-15,15v22.787l-72.149-72.148C197.226,7.846,329.453,11.256,415.1,96.901
			C500.745,182.547,504.155,314.775,425.362,404.148z"/>
	</g>
</g>
<g>
</g>
<g>
</g>
<g>
</g>
<g>
</g>
<g>
</g>
<g>
</g>
<g>
</g>
<g>
</g>
<g>
</g>
<g>
</g>
<g>
</g>
<g>
</g>
<g>
</g>
<g>
</g>
<g>
</g>
</svg>
