<!--?xml version="1.0" encoding="utf-8"?-->
<!-- Generator: Adobe Illustrator 18.1.1, SVG Export Plug-In . SVG Version: 6.00 Build 0)  -->

<svg version="1.1" id="_x32_" xmlns="http://www.w3.org/2000/svg" xmlns:xlink="http://www.w3.org/1999/xlink" x="0px" y="0px" viewBox="0 0 512 512" style="width: 32px; height: 32px; opacity: 1;" xml:space="preserve">
<style type="text/css">
	.st0{fill:#4B4B4B;}
</style>
<g>
	<path class="st0" d="M302.858,40.681l35.425,45.846c-35.874,26.037-67.275,56.796-92.569,91.67
		c-43.081,59.292-68.601,130.602-68.556,206.781v119.495h92.098V384.978c0.045-55.617,18.257-107.422,51.017-152.728
		c19.731-27.252,44.914-51.895,74.312-72.874l38.752,50.142L512,7.527L302.858,40.681z" style="fill: rgb(75, 75, 75);"></path>
	<path class="st0" d="M203.903,187.832C162.846,131.238,105.341,85.695,37.797,55.273L0,139.265
		c53.986,24.271,98.63,60.213,129.344,102.62c14.435,19.955,25.711,41.283,33.761,63.643c8.702-38.92,23.71-76.516,44.834-111.681
		C206.568,191.857,205.32,189.788,203.903,187.832z" style="fill: rgb(75, 75, 75);"></path>
</g>
</svg>
